<svg xmlns="http://www.w3.org/2000/svg" xml:space="preserve" style="fill-rule:evenodd;clip-rule:evenodd;stroke-linecap:round" viewBox="0 0 24 24"><path d="M0 0h13.696v11.44H0z" style="fill:none" transform="scale(1.75234 2.0979)"/><path d="M9.952 11.424 0 11.44V.032L9.632 0c.345-.002.689.021 1.031.068.345.049.657.126.934.23.313.112.604.28.859.494.613.528.92 1.32.92 2.376 0 1.056-.352 1.829-1.056 2.32.229.123.439.277.624.458.166.164.306.352.416.558.103.197.18.406.23.622.047.199.079.415.095.648.008.118.011.236.011.354.002.325-.03.648-.097.966-.089.409-.24.765-.453 1.069a2.515 2.515 0 0 1-.37.421 2.831 2.831 0 0 1-.972.567c-.511.182-1.128.273-1.852.273Zm-.304-4.768H2.56v2.72h7.088c.19.003.38-.019.565-.065.481-.127.768-.438.859-.933.022-.125.033-.251.032-.378a1.784 1.784 0 0 0-.077-.548c-.125-.383-.399-.628-.824-.735a2.304 2.304 0 0 0-.555-.061Zm-.32-4.608H2.56v2.56h6.768c.971 0 1.456-.437 1.456-1.312.003-.18-.025-.36-.085-.53-.165-.445-.573-.683-1.222-.714a2.47 2.47 0 0 0-.149-.004Z" style="fill:#68ffce;fill-rule:nonzero;stroke:#68ffce;stroke-width:.71px" transform="translate(3.759 5.116) scale(1.20346)"/></svg>