<svg xmlns="http://www.w3.org/2000/svg" xml:space="preserve" style="fill-rule:evenodd;clip-rule:evenodd;stroke-linecap:round" viewBox="0 0 24 24"><path d="M0 0h20.336v11.44H0z" style="fill:none" transform="scale(1.18017 2.0979)"/><g transform="translate(.456 7.226) scale(.54877)"><clipPath id="a"><path d="M0 0h42.072v17.4H0z"/></clipPath><g clip-path="url(#a)"><path d="M42.072 17.4H31.536c-2.928 0-5.212-.732-6.852-2.196a6.99 6.99 0 0 1-2.054-3.356 10.781 10.781 0 0 1-.392-2.514c-.01-.215-.014-.431-.014-.646-.007-.852.079-1.703.257-2.537.364-1.641 1.114-2.96 2.251-3.955A8.062 8.062 0 0 1 27.582.62c.79-.259 1.664-.436 2.621-.533A18.291 18.291 0 0 1 32.016 0h9.12v3.12H32.28c-2.096 0-3.644.44-4.644 1.32a3.994 3.994 0 0 0-1.101 1.656c-.162.44-.275.933-.338 1.478-.042.37-.062.742-.061 1.114 0 1.179.178 2.163.533 2.952.19.432.457.826.787 1.164.484.48 1.072.843 1.717 1.062.623.222 1.339.352 2.147.39V7.584h10.752V17.4Zm-27.144-.144L0 17.28V.168L14.448.12c.517-.003 1.034.031 1.547.102.517.075.984.19 1.401.345.47.169.906.42 1.288.741.57.498.978 1.156 1.169 1.889.114.405.182.849.204 1.333.005.114.007.228.007.342.004.458-.048.915-.155 1.361a3.531 3.531 0 0 1-1.429 2.119c.343.184.658.415.936.687.249.246.46.528.624.837.154.295.27.609.345.933.106.444.159.945.159 1.503 0 1.249-.275 2.267-.825 3.052-.161.23-.347.442-.555.632-.424.378-.92.667-1.458.85a6.831 6.831 0 0 1-1.445.332c-.442.054-.887.08-1.333.078Zm-.456-7.152H3.84v4.08h10.632c1.24 0 1.952-.499 2.136-1.497.033-.187.049-.377.048-.567 0-1.344-.728-2.016-2.184-2.016Zm-.48-6.912H3.84v3.84h10.152c1.239 0 1.951-.475 2.136-1.426.033-.179.049-.36.048-.542a2.27 2.27 0 0 0-.128-.796c-.267-.717-.952-1.076-2.056-1.076Zm20.928 7.512v3.576h3.312v-3.576H34.92Z" style="stroke:#000;stroke-width:.94px"/></g></g></svg>