<svg xmlns="http://www.w3.org/2000/svg" xml:space="preserve" style="fill-rule:evenodd;clip-rule:evenodd;stroke-linecap:round" viewBox="0 0 24 24"><g transform="scale(.87108 2.0979)"><path d="M0 0h27.552v11.44H0z" style="fill:none"/><clipPath id="a"><path d="M0 0h27.552v11.44H0z"/></clipPath><g clip-path="url(#a)"><path d="M27.248 11.44H14.784V8.048c0-.891.208-1.614.625-2.17.082-.11.173-.214.271-.31.519-.509 1.242-.798 2.171-.865.145-.01.291-.015.437-.015h5.264a2.61 2.61 0 0 0 .571-.057c.533-.121.841-.432.925-.935.016-.1.024-.202.024-.304a1.57 1.57 0 0 0-.089-.552c-.173-.46-.595-.707-1.267-.74a2.992 2.992 0 0 0-.164-.004H15.04V.016h9.008a4.92 4.92 0 0 1 1.034.101c.626.133 1.143.398 1.55.795.413.407.697.926.816 1.493.072.324.106.655.104.987a4.4 4.4 0 0 1-.114 1.029 2.937 2.937 0 0 1-.806 1.451 3.015 3.015 0 0 1-1.334.742 4.707 4.707 0 0 1-1.25.154H18.64c-.459 0-.803.115-1.032.344a1.126 1.126 0 0 0-.29.519 1.743 1.743 0 0 0-.054.449v1.296h9.984v2.064Zm-24.688 0H0V0h2.56v4.688h8.064V0h2.56v11.44h-2.56V6.768H2.56v4.672Z" style="fill:#68ffce;fill-rule:nonzero;stroke:#68ffce;stroke-width:.71px" transform="matrix(.94063 0 0 .39056 .818 3.486)"/></g></g></svg>