<svg xmlns="http://www.w3.org/2000/svg" xml:space="preserve" style="fill-rule:evenodd;clip-rule:evenodd;stroke-linecap:round" viewBox="0 0 24 24"><g transform="scale(.95178 2.0979)"><path d="M0 0h25.216v11.44H0z" style="fill:none"/><clipPath id="a"><path d="M0 0h25.216v11.44H0z"/></clipPath><g clip-path="url(#a)"><path d="M2.32 11.44H0V3.2h10.672c.939 0 1.627.232 2.064.696.316.339.526.763.603 1.22.036.202.054.407.053.612v5.712h-2.32V6.016c0-.517-.208-.828-.625-.935a1.46 1.46 0 0 0-.367-.041H7.856v6.4h-2.32v-6.4H2.32v6.4Zm16.976 0c-.163 0-.327-.005-.49-.015a6.011 6.011 0 0 1-1.313-.217 3.985 3.985 0 0 1-1.541-.824 3.172 3.172 0 0 1-.285-.283c-.61-.684-.915-1.608-.915-2.773 0-.473.049-.906.148-1.299a3.399 3.399 0 0 1 1.052-1.773c.531-.467 1.201-.78 2.01-.937.44-.082.887-.122 1.334-.119h5.36v1.84h-5.36a2.92 2.92 0 0 0-.162.004c-.615.027-1.091.215-1.43.564a1.695 1.695 0 0 0-.321.474c-.154.334-.231.749-.231 1.246 0 .134.006.268.019.402.023.227.065.433.128.618.082.256.22.489.405.684.086.088.182.167.285.234.195.127.42.218.677.273.207.042.418.063.63.061h5.52v1.84h-5.52Zm3.6 0V0h2.32v11.44h-2.32Z" style="fill:#fff;fill-rule:nonzero;stroke:#fff;stroke-width:.71px" transform="matrix(.91083 0 0 .41323 1.124 3.356)"/></g></g></svg>